<?xml version="1.0" encoding="UTF-8" standalone="no"?>
<!-- Created with Inkscape (http://www.inkscape.org/) -->

<svg
 xmlns:svg="http://www.w3.org/2000/svg"
 xmlns="http://www.w3.org/2000/svg"
 version="1.1"
 width="720"
 height="720"
 id="svg2">
<defs
 id="defs4" />
<g
 transform="matrix(1.3125,0,0,1.3125,-113.480850932857,-133.0404642139758)"
 id="g2860">
<path
 d="m 262.7549133300781,256.2726364135742 74.7635909323508,54.3189283587488 -28.5571506151645,87.8898723169262 -92.4128806343725,1e-13 -28.5571506151646,-87.8898723169262 74.7635909323508,-54.3189283587489 z"
 transform="matrix(0.6130781143389281,0,0,0.6130781143389282,273.822106848757,195.9954546107111)"
 id="path2840"
 style="fill:#ff0000;fill-opacity:1;stroke:none" />
<path
 d="m 262.7549133300781,256.2726364135742 74.7635909323508,54.3189283587488 -28.5571506151645,87.8898723169262 -92.4128806343725,1e-13 -28.5571506151646,-87.8898723169262 74.7635909323508,-54.3189283587489 z"
 transform="matrix(0.6130781143389281,0,0,0.6130781143389282,365.4939495487823,195.9954546107111)"
 id="path2842"
 style="fill:#ff8000;fill-opacity:1;stroke:none" />
<path
 d="m 262.7549133300781,256.2726364135742 74.7635909323508,54.3189283587488 -28.5571506151645,87.8898723169262 -92.4128806343725,1e-13 -28.5571506151646,-87.8898723169262 74.7635909323508,-54.3189283587489 z"
 transform="matrix(0.6130781143389281,0,0,0.6130781143389282,393.8221068487571,283.1805579713545)"
 id="path2844"
 style="fill:#ffff00;fill-opacity:1;stroke:none" />
<path
 d="m 262.7549133300781,256.2726364135742 74.7635909323508,54.3189283587488 -28.5571506151645,87.8898723169262 -92.4128806343725,1e-13 -28.5571506151646,-87.8898723169262 74.7635909323508,-54.3189283587489 z"
 transform="matrix(0.6130781143389281,0,0,0.6130781143389282,319.6580281987697,337.063915160905)"
 id="path2846"
 style="fill:#ff00ff;fill-opacity:1;stroke:none" />
<path
 d="m 262.7549133300781,256.2726364135742 74.7635909323508,54.3189283587488 -28.5571506151645,87.8898723169262 -92.4128806343725,1e-13 -28.5571506151646,-87.8898723169262 74.7635909323508,-54.3189283587489 z"
 transform="matrix(0.6130781143389281,0,0,0.6130781143389282,245.4939495487824,283.1805579713545)"
 id="path2848"
 style="fill:#ff0080;fill-opacity:1;stroke:none" />
</g>
<g
 transform="matrix(1.3125,0,0,1.3125,13.02630470220531,-5.166961133347286)"
 id="g2877">
<path
 d="m 262.7549133300781,256.2726364135742 74.7635909323508,54.3189283587488 -28.5571506151645,87.8898723169262 -92.4128806343725,1e-13 -28.5571506151646,-87.8898723169262 74.7635909323508,-54.3189283587489 z"
 transform="matrix(0.6130781143389281,0,0,0.6130781143389282,57.43570255537606,-96.38379404760735)"
 id="path2850"
 style="fill:#0000ff;fill-opacity:1;stroke:none" />
<path
 d="m 262.7549133300781,256.2726364135742 74.7635909323508,54.3189283587488 -28.5571506151645,87.8898723169262 -92.4128806343725,1e-13 -28.5571506151646,-87.8898723169262 74.7635909323508,-54.3189283587489 z"
 transform="matrix(0.6130781143389281,0,0,0.6130781143389282,149.1075452554014,-96.38379404760735)"
 id="path2852"
 style="fill:#8000ff;fill-opacity:1;stroke:none" />
<path
 d="m 262.7549133300781,256.2726364135742 74.7635909323508,54.3189283587488 -28.5571506151645,87.8898723169262 -92.4128806343725,1e-13 -28.5571506151646,-87.8898723169262 74.7635909323508,-54.3189283587489 z"
 transform="matrix(0.6130781143389281,0,0,0.6130781143389282,177.4357025553761,-9.198690686963914)"
 id="path2854"
 style="fill:#ff00ff;fill-opacity:1;stroke:none" />
<path
 d="m 262.7549133300781,256.2726364135742 74.7635909323508,54.3189283587488 -28.5571506151645,87.8898723169262 -92.4128806343725,1e-13 -28.5571506151646,-87.8898723169262 74.7635909323508,-54.3189283587489 z"
 transform="matrix(0.6130781143389281,0,0,0.6130781143389282,103.2716239053888,44.68466650258665)"
 id="path2856"
 style="fill:#00ffff;fill-opacity:1;stroke:none" />
<path
 d="m 262.7549133300781,256.2726364135742 74.7635909323508,54.3189283587488 -28.5571506151645,87.8898723169262 -92.4128806343725,1e-13 -28.5571506151646,-87.8898723169262 74.7635909323508,-54.3189283587489 z"
 transform="matrix(0.6130781143389281,0,0,0.6130781143389282,29.10754525540145,-9.198690686963914)"
 id="path2858"
 style="fill:#0080ff;fill-opacity:1;stroke:none" />
</g>
<g
 transform="matrix(1.3125,0,0,1.3125,-44.73308706881423,-176.9939525860687)"
 id="g2884">
<path
 d="m 262.7549133300781,256.2726364135742 74.7635909323508,54.3189283587488 -28.5571506151645,87.8898723169262 -92.4128806343725,1e-13 -28.5571506151646,-87.8898723169262 74.7635909323508,-54.3189283587489 z"
 transform="matrix(0.6130781143389281,0,0,0.6130781143389282,-18.55714180956135,229.4838267037343)"
 id="path2867"
 style="fill:#00ff00;fill-opacity:1;stroke:none" />
<path
 d="m 262.7549133300781,256.2726364135742 74.7635909323508,54.3189283587488 -28.5571506151645,87.8898723169262 -92.4128806343725,1e-13 -28.5571506151646,-87.8898723169262 74.7635909323508,-54.3189283587489 z"
 transform="matrix(0.6130781143389281,0,0,0.6130781143389282,73.11470089046396,229.4838267037343)"
 id="path2869"
 style="fill:#00ff80;fill-opacity:1;stroke:none" />
<path
 d="m 262.7549133300781,256.2726364135742 74.7635909323508,54.3189283587488 -28.5571506151645,87.8898723169262 -92.4128806343725,1e-13 -28.5571506151646,-87.8898723169262 74.7635909323508,-54.3189283587489 z"
 transform="matrix(0.6130781143389281,0,0,0.6130781143389282,101.4428581904387,316.6689300643777)"
 id="path2871"
 style="fill:#00ffff;fill-opacity:1;stroke:none" />
<path
 d="m 262.7549133300781,256.2726364135742 74.7635909323508,54.3189283587488 -28.5571506151645,87.8898723169262 -92.4128806343725,1e-13 -28.5571506151646,-87.8898723169262 74.7635909323508,-54.3189283587489 z"
 transform="matrix(0.6130781143389281,0,0,0.6130781143389282,27.27877954045138,370.5522872539283)"
 id="path2873"
 style="fill:#ffff00;fill-opacity:1;stroke:none" />
<path
 d="m 262.7549133300781,256.2726364135742 74.7635909323508,54.3189283587488 -28.5571506151645,87.8898723169262 -92.4128806343725,1e-13 -28.5571506151646,-87.8898723169262 74.7635909323508,-54.3189283587489 z"
 transform="matrix(0.6130781143389281,0,0,0.6130781143389282,-46.88529910953597,316.6689300643777)"
 id="path2875"
 style="fill:#80ff00;fill-opacity:1;stroke:none" />
</g>
</svg>
