<svg height="700" width="770" xmlns="http://www.w3.org/2000/svg" xmlns:xlink="http://www.w3.org/1999/xlink"><defs><filter id="a" height="200%" width="200%" x="-40%" y="-40%"><feGaussianBlur in="SourceGraphic" stdDeviation="14"/></filter><radialGradient id="b" cx="385" cy="350" gradientUnits="userSpaceOnUse" r="350"><stop offset=".65" stop-color="#b196e9"/><stop offset=".87" stop-color="#5a28bd"/></radialGradient><path id="c" d="m224.13320728 189.13320728c0-107.8 160.86679272-159.03320728 160.86679272-220.63320728 0 61.6 160.86679272 112.83320728 160.86679272 220.63320728l-195.86679272 160.86679272z" fill="url(#b)" stroke="#3c1b7e" stroke-linejoin="round" stroke-width="4"/></defs><use transform="matrix(0 1 -1 0 735 -35)" xlink:href="#c"/><use transform="matrix(0 -1 1 0 35 735)" xlink:href="#c"/><path d="m612.5 350c0 125.64478-101.85522 227.5-227.5 227.5s-227.5-101.85522-227.5-227.5 101.85522-227.5 227.5-227.5 227.5 101.85522 227.5 227.5z" fill="#642dd2" stroke="#3c1b7e" stroke-width="7"/><path d="m385 122.5 197.02078 341.25h-394.04156z" fill="none" stroke="#3c1b7e" stroke-linejoin="round" stroke-width="4" transform="matrix(.5 .8660254 -.8660254 .5 495.608891 -158.41978)"/><g fill="#fff" filter="url(#a)" stroke="#efeafb" stroke-width="7"><path d="m400.45703 267.52881-14.35547 12.4414-16.26953-11.12548 15.3125-12.44141zm26.55762 17.70508c-10.44773 11.80352-20.81556 17.70521-31.10352 17.70507-6.69933.00014-13.75743-2.31268-21.17431-6.93847-5.26377-3.26971-13.03964-9.45053-23.32764-18.54248l-.59814-1.91406 2.39257-.95704c8.85246 10.12874 18.42276 15.19302 28.71094 15.19288 12.04253.00014 22.60974-7.89536 31.70166-23.68653 2.7912 5.26384 5.06415 8.97233 6.81885 11.12549zm51.79931 69.1455c-.0002 13.95678-2.19339 25.5209-6.57959 34.69239-5.66262 11.80342-14.35564 17.70511-26.0791 17.70508-9.88948-1.11651-16.42919-6.42005-19.61914-15.91065-1.43569-4.22684-2.99087-12.80023-4.66552-25.72021l-8.2544 5.86181c-2.31296 2.07364-5.2638 3.11042-8.85254 3.11035-8.21464.00007-17.98432-6.9384-29.30908-20.81543-2.23317 4.38648-5.5429 8.09497-9.9292 11.12549 21.77235 9.41087 32.65857 22.84917 32.65869 40.31494-.00012 9.8096-3.66874 17.82473-11.00586 24.04541-6.85882 5.9017-15.31259 8.85254-25.36133 8.85254-12.60098 0-23.72646-3.70849-33.37646-11.12549-7.57654-5.82192-15.15303-14.99346-22.72949-27.51464-4.38642-7.3372-10.32798-19.06082-17.82471-35.1709l-1.31592-4.5459 1.07666.95703c1.27603.87736 2.19319 2.07364 2.75147 3.58887l15.3125 28.35205c10.12854 18.74189 23.36746 28.11281 39.71679 28.11279 9.09172.00002 16.3492-2.19317 21.77247-6.57959 5.90159-4.78513 8.85244-11.64384 8.85253-20.57617-.00009-11.0058-3.94784-19.65895-11.84326-25.95947l-10.16845 5.02441c-6.14103 3.03066-11.96296 4.9846-17.46582 5.86182l-5.98145-11.24512-5.14404-10.88623c13.23887-1.43546 22.76929-4.14705 28.59131-8.13477 7.73591-5.34332 12.99958-14.51486 15.79101-27.51464l.35889-3.58887c-.0001-7.41686-4.46624-11.12536-13.39844-11.12549-8.61335 1.11667-15.87083 3.54912-21.77246 7.29736-4.94472 3.11048-10.60714 8.33427-16.98731 15.67139-2.39261-1.11643-5.1042-3.58875-8.13476-7.41699l-8.37402-10.64697c12.0426-12.44127 25.68028-18.66197 40.91308-18.66211 11.96281.00014 21.25398 4.42641 27.87354 13.27881 5.98134 7.89563 8.97206 18.0242 8.97216 30.38574l-.71777 6.69922-.95703 7.0581c-.0001 1.9939.91705 3.70858 2.75146 5.14404 2.79124 2.23316 5.58258 3.34969 8.37403 3.34961 7.65613.00008 13.87683-6.02123 18.66211-18.06396 7.73586-19.37977 12.32163-30.38561 13.75732-33.01758 5.9813-10.76646 13.43816-16.66815 22.37061-17.70508 7.81558.00015 15.35219 5.54295 22.60986 16.62842 8.45358 12.92004 12.68046 29.18956 12.68066 48.80859m-10.28808-17.70507c.31882-21.53308-4.30683-32.29967-13.87695-32.29981-6.93865 1.43568-14.15625 12.04277-21.65284 31.82129-3.27001 8.61338-4.90493 16.42912-4.90478 23.44727-.00015 10.04889 3.86784 16.70823 11.604 19.97802 10.12841.00006 17.58527-3.5888 22.37061-10.7666 3.11016-4.62558 5.2236-12.28182 6.34033-22.96875z" fill="#fff" filter="url(#a)" stroke="#efeafb" stroke-width="7"/></g><path d="m400.45703 267.52881-14.35547 12.4414-16.26953-11.12548 15.3125-12.44141zm26.55762 17.70508c-10.44773 11.80352-20.81556 17.70521-31.10352 17.70507-6.69933.00014-13.75743-2.31268-21.17431-6.93847-5.26377-3.26971-13.03964-9.45053-23.32764-18.54248l-.59814-1.91406 2.39257-.95704c8.85246 10.12874 18.42276 15.19302 28.71094 15.19288 12.04253.00014 22.60974-7.89536 31.70166-23.68653 2.7912 5.26384 5.06415 8.97233 6.81885 11.12549zm51.79931 69.1455c-.0002 13.95678-2.19339 25.5209-6.57959 34.69239-5.66262 11.80342-14.35564 17.70511-26.0791 17.70508-9.88948-1.11651-16.42919-6.42005-19.61914-15.91065-1.43569-4.22684-2.99087-12.80023-4.66552-25.72021l-8.2544 5.86181c-2.31296 2.07364-5.2638 3.11042-8.85254 3.11035-8.21464.00007-17.98432-6.9384-29.30908-20.81543-2.23317 4.38648-5.5429 8.09497-9.9292 11.12549 21.77235 9.41087 32.65857 22.84917 32.65869 40.31494-.00012 9.8096-3.66874 17.82473-11.00586 24.04541-6.85882 5.9017-15.31259 8.85254-25.36133 8.85254-12.60098 0-23.72646-3.70849-33.37646-11.12549-7.57654-5.82192-15.15303-14.99346-22.72949-27.51464-4.38642-7.3372-10.32798-19.06082-17.82471-35.1709l-1.31592-4.5459 1.07666.95703c1.27603.87736 2.19319 2.07364 2.75147 3.58887l15.3125 28.35205c10.12854 18.74189 23.36746 28.11281 39.71679 28.11279 9.09172.00002 16.3492-2.19317 21.77247-6.57959 5.90159-4.78513 8.85244-11.64384 8.85253-20.57617-.00009-11.0058-3.94784-19.65895-11.84326-25.95947l-10.16845 5.02441c-6.14103 3.03066-11.96296 4.9846-17.46582 5.86182l-5.98145-11.24512-5.14404-10.88623c13.23887-1.43546 22.76929-4.14705 28.59131-8.13477 7.73591-5.34332 12.99958-14.51486 15.79101-27.51464l.35889-3.58887c-.0001-7.41686-4.46624-11.12536-13.39844-11.12549-8.61335 1.11667-15.87083 3.54912-21.77246 7.29736-4.94472 3.11048-10.60714 8.33427-16.98731 15.67139-2.39261-1.11643-5.1042-3.58875-8.13476-7.41699l-8.37402-10.64697c12.0426-12.44127 25.68028-18.66197 40.91308-18.66211 11.96281.00014 21.25398 4.42641 27.87354 13.27881 5.98134 7.89563 8.97206 18.0242 8.97216 30.38574l-.71777 6.69922-.95703 7.0581c-.0001 1.9939.91705 3.70858 2.75146 5.14404 2.79124 2.23316 5.58258 3.34969 8.37403 3.34961 7.65613.00008 13.87683-6.02123 18.66211-18.06396 7.73586-19.37977 12.32163-30.38561 13.75732-33.01758 5.9813-10.76646 13.43816-16.66815 22.37061-17.70508 7.81558.00015 15.35219 5.54295 22.60986 16.62842 8.45358 12.92004 12.68046 29.18956 12.68066 48.80859m-10.28808-17.70507c.31882-21.53308-4.30683-32.29967-13.87695-32.29981-6.93865 1.43568-14.15625 12.04277-21.65284 31.82129-3.27001 8.61338-4.90493 16.42912-4.90478 23.44727-.00015 10.04889 3.86784 16.70823 11.604 19.97802 10.12841.00006 17.58527-3.5888 22.37061-10.7666 3.11016-4.62558 5.2236-12.28182 6.34033-22.96875z" stroke="#d0c0f2" stroke-width="4"/><path d="m400.45703 267.52881-14.35547 12.4414-16.26953-11.12548 15.3125-12.44141zm26.55762 17.70508c-10.44773 11.80352-20.81556 17.70521-31.10352 17.70507-6.69933.00014-13.75743-2.31268-21.17431-6.93847-5.26377-3.26971-13.03964-9.45053-23.32764-18.54248l-.59814-1.91406 2.39257-.95704c8.85246 10.12874 18.42276 15.19302 28.71094 15.19288 12.04253.00014 22.60974-7.89536 31.70166-23.68653 2.7912 5.26384 5.06415 8.97233 6.81885 11.12549zm51.79931 69.1455c-.0002 13.95678-2.19339 25.5209-6.57959 34.69239-5.66262 11.80342-14.35564 17.70511-26.0791 17.70508-9.88948-1.11651-16.42919-6.42005-19.61914-15.91065-1.43569-4.22684-2.99087-12.80023-4.66552-25.72021l-8.2544 5.86181c-2.31296 2.07364-5.2638 3.11042-8.85254 3.11035-8.21464.00007-17.98432-6.9384-29.30908-20.81543-2.23317 4.38648-5.5429 8.09497-9.9292 11.12549 21.77235 9.41087 32.65857 22.84917 32.65869 40.31494-.00012 9.8096-3.66874 17.82473-11.00586 24.04541-6.85882 5.9017-15.31259 8.85254-25.36133 8.85254-12.60098 0-23.72646-3.70849-33.37646-11.12549-7.57654-5.82192-15.15303-14.99346-22.72949-27.51464-4.38642-7.3372-10.32798-19.06082-17.82471-35.1709l-1.31592-4.5459 1.07666.95703c1.27603.87736 2.19319 2.07364 2.75147 3.58887l15.3125 28.35205c10.12854 18.74189 23.36746 28.11281 39.71679 28.11279 9.09172.00002 16.3492-2.19317 21.77247-6.57959 5.90159-4.78513 8.85244-11.64384 8.85253-20.57617-.00009-11.0058-3.94784-19.65895-11.84326-25.95947l-10.16845 5.02441c-6.14103 3.03066-11.96296 4.9846-17.46582 5.86182l-5.98145-11.24512-5.14404-10.88623c13.23887-1.43546 22.76929-4.14705 28.59131-8.13477 7.73591-5.34332 12.99958-14.51486 15.79101-27.51464l.35889-3.58887c-.0001-7.41686-4.46624-11.12536-13.39844-11.12549-8.61335 1.11667-15.87083 3.54912-21.77246 7.29736-4.94472 3.11048-10.60714 8.33427-16.98731 15.67139-2.39261-1.11643-5.1042-3.58875-8.13476-7.41699l-8.37402-10.64697c12.0426-12.44127 25.68028-18.66197 40.91308-18.66211 11.96281.00014 21.25398 4.42641 27.87354 13.27881 5.98134 7.89563 8.97206 18.0242 8.97216 30.38574l-.71777 6.69922-.95703 7.0581c-.0001 1.9939.91705 3.70858 2.75146 5.14404 2.79124 2.23316 5.58258 3.34969 8.37403 3.34961 7.65613.00008 13.87683-6.02123 18.66211-18.06396 7.73586-19.37977 12.32163-30.38561 13.75732-33.01758 5.9813-10.76646 13.43816-16.66815 22.37061-17.70508 7.81558.00015 15.35219 5.54295 22.60986 16.62842 8.45358 12.92004 12.68046 29.18956 12.68066 48.80859m-10.28808-17.70507c.31882-21.53308-4.30683-32.29967-13.87695-32.29981-6.93865 1.43568-14.15625 12.04277-21.65284 31.82129-3.27001 8.61338-4.90493 16.42912-4.90478 23.44727-.00015 10.04889 3.86784 16.70823 11.604 19.97802 10.12841.00006 17.58527-3.5888 22.37061-10.7666 3.11016-4.62558 5.2236-12.28182 6.34033-22.96875z" fill="#1e0d3f"/><g stroke="#1e0d3f" stroke-width="2"><path d="m130.1709 335.04395h-9.53613c-.00003 1.11657.1253 2.71162.37597 4.78515l.41016 3.38379c-.00003.59248-.0684 1.09378-.20508 1.50391-.0456.11396-.15953.25068-.3418.41015l-2.35839.30762-1.94825.0684-6.49414-.41016c-1.48113-.0911-2.84832.13675-4.10156.6836-1.57228.70641-2.35841 1.74319-2.3584 3.11035-.00001.7064.21646 1.41278.64942 2.11914h1.26464c.18228-.0455.50129-.1253.95704-.23926 2.36977-.4557 4.10154-.68357 5.19531-.68359 2.87107.00002 5.40037.76337 7.58789 2.29004 2.23304 1.59507 3.75974 3.74839 4.58008 6.45996.2734.91147.41012 1.84572.41015 2.80273-.00003 2.11915-.75198 3.83953-2.25586 5.16113-.79755.70639-1.56089 1.05958-2.29004 1.05958-.5469 0-1.10516-.12532-1.6748-.37598l-1.70898-.75195-4.64844-1.23047c-.84312-.36458-1.26467-.82031-1.26465-1.36719l.20508-.58106c2.73435-.27342 4.56866-.6494 5.50293-1.12793 1.93682-1.00259 2.90525-2.90525 2.90527-5.708-.00002-2.07355-1.18492-3.11033-3.55469-3.11035-1.09377.00002-2.47235.28485-4.13574.85449-5.12696 1.75457-7.69044 4.42059-7.69043 7.99804-.00001 4.42059 3.20149 7.63347 9.60449 9.63868l6.32325 1.98242 6.18652 1.23047c2.32418.45573 3.86227.90006 4.61426 1.333.88863.5013 1.34436 1.00261 1.36718 1.50391.0228.70638-.82034 1.05957-2.52929 1.05957-4.12438-.6836-8.38545-1.72038-12.78321-3.11035-8.0892-2.55208-13.58073-5.50293-16.474605-8.85254-1.708988-1.98241-2.563479-4.55728-2.563477-7.72461-.000002-1.4811.489906-2.79132 1.469727-3.93066.455725-.52407 1.652015-1.56085 3.588865-3.11035-.0456-.27342-.91146-1.23045-2.597654-2.8711-1.572269-1.52666-2.358401-3.09893-2.358399-4.71679-.000002-3.07614 2.905273-4.53448 8.715823-4.375l4.68261.13671c3.07616.0912 4.71678-.69495 4.92188-2.35839v-3.24707h-20.81543v-5.33204h35.1709v5.33204"/><path d="m123.19824 321.9873-2.1875 2.66602-1.77734 1.98242c-.50129.27349-.88866.41021-1.16211.41016-.36457.00005-1.3216-.91141-2.87109-2.73438l-2.15332-2.46093v-1.26465l2.56347-3.48633c.63804-.86583 1.27606-1.48106 1.91406-1.8457.63804.00006 2.52931 1.7774 5.67383 5.33203l.0684.71777z"/></g><g fill="#efeafb"><path d="m130.1709 335.04395h-9.53613c-.00003 1.11657.1253 2.71162.37597 4.78515l.41016 3.38379c-.00003.59248-.0684 1.09378-.20508 1.50391-.0456.11396-.15953.25068-.3418.41015l-2.35839.30762-1.94825.0684-6.49414-.41016c-1.48113-.0911-2.84832.13675-4.10156.6836-1.57228.70641-2.35841 1.74319-2.3584 3.11035-.00001.7064.21646 1.41278.64942 2.11914h1.26464c.18228-.0455.50129-.1253.95704-.23926 2.36977-.4557 4.10154-.68357 5.19531-.68359 2.87107.00002 5.40037.76337 7.58789 2.29004 2.23304 1.59507 3.75974 3.74839 4.58008 6.45996.2734.91147.41012 1.84572.41015 2.80273-.00003 2.11915-.75198 3.83953-2.25586 5.16113-.79755.70639-1.56089 1.05958-2.29004 1.05958-.5469 0-1.10516-.12532-1.6748-.37598l-1.70898-.75195-4.64844-1.23047c-.84312-.36458-1.26467-.82031-1.26465-1.36719l.20508-.58106c2.73435-.27342 4.56866-.6494 5.50293-1.12793 1.93682-1.00259 2.90525-2.90525 2.90527-5.708-.00002-2.07355-1.18492-3.11033-3.55469-3.11035-1.09377.00002-2.47235.28485-4.13574.85449-5.12696 1.75457-7.69044 4.42059-7.69043 7.99804-.00001 4.42059 3.20149 7.63347 9.60449 9.63868l6.32325 1.98242 6.18652 1.23047c2.32418.45573 3.86227.90006 4.61426 1.333.88863.5013 1.34436 1.00261 1.36718 1.50391.0228.70638-.82034 1.05957-2.52929 1.05957-4.12438-.6836-8.38545-1.72038-12.78321-3.11035-8.0892-2.55208-13.58073-5.50293-16.474605-8.85254-1.708988-1.98241-2.563479-4.55728-2.563477-7.72461-.000002-1.4811.489906-2.79132 1.469727-3.93066.455725-.52407 1.652015-1.56085 3.588865-3.11035-.0456-.27342-.91146-1.23045-2.597654-2.8711-1.572269-1.52666-2.358401-3.09893-2.358399-4.71679-.000002-3.07614 2.905273-4.53448 8.715823-4.375l4.68261.13671c3.07616.0912 4.71678-.69495 4.92188-2.35839v-3.24707h-20.81543v-5.33204h35.1709v5.33204"/><path d="m123.19824 321.9873-2.1875 2.66602-1.77734 1.98242c-.50129.27349-.88866.41021-1.16211.41016-.36457.00005-1.3216-.91141-2.87109-2.73438l-2.15332-2.46093v-1.26465l2.56347-3.48633c.63804-.86583 1.27606-1.48106 1.91406-1.8457.63804.00006 2.52931 1.7774 5.67383 5.33203l.0684.71777z"/></g><g stroke="#1e0d3f" stroke-width="2"><path d="m656.96191 340.68359c.63801-.88863.95702-2.01656.95704-3.38379-.00002-2.50647-1.24188-3.75972-3.72559-3.75976-1.64064.15955-2.83693.67224-3.58887 1.53808-.63803.72921-1.11654 1.95968-1.43554 3.69141-.00001 3.05342 1.29881 4.92191 3.89648 5.60547.95702-.15947 1.70897-.6266 2.25586-1.40137zm17.12403-5.63964h-6.83594l-4.34082-5.33204h21.08887v5.33204h-3.93067v38.38378c-.00004.97982-.12536 1.5153-.37597 1.60645-.52413-.0228-2.09639-1.50391-4.7168-4.44336-.50134-.45572-.79756-1.04817-.88867-1.77734v-16.85059c-1.93688 1.07099-3.99906 1.60647-6.18653 1.60645-2.07359.00002-3.93068-.37596-5.57129-1.12793-1.13934-.52407-2.76857-1.60642-4.88769-3.24707-2.64324 1.57229-4.58009 3.03062-5.81055 4.375-1.75456 1.93686-2.63184 4.12436-2.63183 6.5625-.00001 1.34441.45572 2.44955 1.36718 3.31543.91145.86589 2.03938 1.29883 3.38379 1.29882 1.1621.00001 1.9938-.43293 2.49512-1.29882l1.36719-3.48633c.68357-1.27603 1.6406-1.91405 2.87109-1.91407l1.46973.1709c3.09893.84312 4.64841 2.40399 4.64844 4.68262-.00003 1.45834-.77477 2.97364-2.32422 4.5459l-1.50391.99121c-.47854.22787-.71779.53549-.71777.92285-.00002.36459.14809.78614.44433 1.26465l2.5293 4.10156c.638 1.02539 1.19626 2.11914 1.6748 3.28125l.23926 1.12793c-.00002.56966-.23928 1.03678-.71777 1.40137-.45575.38736-.97984.58105-1.57227.58105-1.41278 0-2.42678-.78613-3.04199-2.35839-.3646-.95704-.92287-2.73438-1.6748-5.33204l-1.02539-3.58886c-2.91669-.56966-5.03582-1.15071-6.35743-1.74317-1.45834-.6608-3.07618-1.77733-4.85351-3.34961-2.84831-2.52928-4.27246-5.49152-4.27246-8.88672 0-3.87367 1.76594-6.68779 5.29785-8.44238.88866-.43291 1.36718-.86585 1.43555-1.29883-.00001-.36455-.5241-.91142-1.57227-1.64062-2.05079-1.41273-3.31543-2.38115-3.79394-2.90527-1.27605-1.38994-1.91407-3.13311-1.91407-5.2295 0-2.6204.82031-4.4661 2.46094-5.53711 1.1621-.7519 3.05338-1.12788 5.67383-1.12793 3.89647.00005 7.01821 1.53813 9.36523 4.61426 1.64061 2.16475 2.46092 4.23832 2.46094 6.22071-.00002 1.2305-.29625 2.47236-.88867 3.72558-.36461.75198-1.10516 1.84573-2.22168 3.28125.43292.41018 1.11652.82034 2.05078 1.23047.82029.27346 1.77732.41018 2.87109.41016 1.68618.00002 3.40655-.34177 5.16114-1.02539 1.84567-.72914 3.26982-1.69757 4.27246-2.90528z"/><path d="m681.53711 321.9873-2.1875 2.66602-1.77734 1.98242c-.5013.27349-.88867.41021-1.16211.41016-.36458.00005-1.32161-.91141-2.8711-2.73438l-2.15332-2.46093v-1.26465l2.56348-3.48633c.63803-.86583 1.27605-1.48106 1.91406-1.8457.63803.00006 2.52931 1.7774 5.67383 5.33203l.0684.71777z"/></g><g fill="#efeafb"><path d="m656.96191 340.68359c.63801-.88863.95702-2.01656.95704-3.38379-.00002-2.50647-1.24188-3.75972-3.72559-3.75976-1.64064.15955-2.83693.67224-3.58887 1.53808-.63803.72921-1.11654 1.95968-1.43554 3.69141-.00001 3.05342 1.29881 4.92191 3.89648 5.60547.95702-.15947 1.70897-.6266 2.25586-1.40137zm17.12403-5.63964h-6.83594l-4.34082-5.33204h21.08887v5.33204h-3.93067v38.38378c-.00004.97982-.12536 1.5153-.37597 1.60645-.52413-.0228-2.09639-1.50391-4.7168-4.44336-.50134-.45572-.79756-1.04817-.88867-1.77734v-16.85059c-1.93688 1.07099-3.99906 1.60647-6.18653 1.60645-2.07359.00002-3.93068-.37596-5.57129-1.12793-1.13934-.52407-2.76857-1.60642-4.88769-3.24707-2.64324 1.57229-4.58009 3.03062-5.81055 4.375-1.75456 1.93686-2.63184 4.12436-2.63183 6.5625-.00001 1.34441.45572 2.44955 1.36718 3.31543.91145.86589 2.03938 1.29883 3.38379 1.29882 1.1621.00001 1.9938-.43293 2.49512-1.29882l1.36719-3.48633c.68357-1.27603 1.6406-1.91405 2.87109-1.91407l1.46973.1709c3.09893.84312 4.64841 2.40399 4.64844 4.68262-.00003 1.45834-.77477 2.97364-2.32422 4.5459l-1.50391.99121c-.47854.22787-.71779.53549-.71777.92285-.00002.36459.14809.78614.44433 1.26465l2.5293 4.10156c.638 1.02539 1.19626 2.11914 1.6748 3.28125l.23926 1.12793c-.00002.56966-.23928 1.03678-.71777 1.40137-.45575.38736-.97984.58105-1.57227.58105-1.41278 0-2.42678-.78613-3.04199-2.35839-.3646-.95704-.92287-2.73438-1.6748-5.33204l-1.02539-3.58886c-2.91669-.56966-5.03582-1.15071-6.35743-1.74317-1.45834-.6608-3.07618-1.77733-4.85351-3.34961-2.84831-2.52928-4.27246-5.49152-4.27246-8.88672 0-3.87367 1.76594-6.68779 5.29785-8.44238.88866-.43291 1.36718-.86585 1.43555-1.29883-.00001-.36455-.5241-.91142-1.57227-1.64062-2.05079-1.41273-3.31543-2.38115-3.79394-2.90527-1.27605-1.38994-1.91407-3.13311-1.91407-5.2295 0-2.6204.82031-4.4661 2.46094-5.53711 1.1621-.7519 3.05338-1.12788 5.67383-1.12793 3.89647.00005 7.01821 1.53813 9.36523 4.61426 1.64061 2.16475 2.46092 4.23832 2.46094 6.22071-.00002 1.2305-.29625 2.47236-.88867 3.72558-.36461.75198-1.10516 1.84573-2.22168 3.28125.43292.41018 1.11652.82034 2.05078 1.23047.82029.27346 1.77732.41018 2.87109.41016 1.68618.00002 3.40655-.34177 5.16114-1.02539 1.84567-.72914 3.26982-1.69757 4.27246-2.90528z"/><path d="m681.53711 321.9873-2.1875 2.66602-1.77734 1.98242c-.5013.27349-.88867.41021-1.16211.41016-.36458.00005-1.32161-.91141-2.8711-2.73438l-2.15332-2.46093v-1.26465l2.56348-3.48633c.63803-.86583 1.27605-1.48106 1.91406-1.8457.63803.00006 2.52931 1.7774 5.67383 5.33203l.0684.71777z"/></g></svg>