<?xml version="1.0" standalone="no"?>
<!DOCTYPE svg PUBLIC "-//W3C//DTD SVG 20010904//EN"
 "http://www.w3.org/TR/2001/REC-SVG-20010904/DTD/svg10.dtd">
<svg version="1.0" xmlns="http://www.w3.org/2000/svg"
 width="240.000000pt" height="240.000000pt" viewBox="0 0 240.000000 240.000000"
 preserveAspectRatio="xMidYMid meet">
<metadata>
Created by potrace 1.16, written by Peter Selinger 2001-2019
</metadata>
<g transform="translate(0.000000,240.000000) scale(0.100000,-0.100000)"
fill="#000000" stroke="none">
<path d="M1004 2384 c-443 -74 -804 -387 -945 -818 -207 -633 161 -1331 801
-1518 700 -204 1418 264 1521 992 18 125 6 331 -25 452 -55 210 -154 385 -309
545 -271 280 -664 411 -1043 347z m321 -429 c227 -59 385 -302 347 -531 -26
-159 -126 -294 -269 -362 -77 -37 -79 -37 -203 -37 -124 0 -125 0 -203 38 -99
49 -174 123 -224 223 -32 67 -37 84 -41 174 -4 77 -1 116 13 166 41 153 175
285 335 330 63 17 175 17 245 -1z m-904 -1032 c83 -107 200 -196 354 -269 157
-75 221 -88 430 -88 210 0 281 15 430 88 198 98 337 229 443 421 l33 60 -6
-71 c-11 -126 -53 -246 -127 -361 -119 -182 -281 -304 -508 -379 -80 -26 -95
-28 -260 -28 -149 0 -187 4 -255 22 -205 57 -405 194 -510 351 -81 122 -138
272 -150 396 l-7 70 46 -79 c25 -43 64 -103 87 -133z"/>
</g>
</svg>
